<svg t="1616402166827" class="icon" viewBox="0 0 1024 1024" version="1.1" xmlns="http://www.w3.org/2000/svg" p-id="3057"
     width="32" height="32">
    <path d="M512 1024C229.236364 1024 0 794.763636 0 512S229.236364 0 512 0s512 229.236364 512 512S794.763636 1024 512 1024zM512 46.545455C254.929455 46.545455 46.545455 254.929455 46.545455 512s208.384 465.454545 465.454545 465.454545 465.454545-208.384 465.454545-465.454545S769.070545 46.545455 512 46.545455z"
          p-id="3058" fill="#ff0000"></path>
    <path d="M709.469091 281.623273l32.907636 32.907636L314.530909 742.376727l-32.907636-32.907636L709.469091 281.623273z"
          p-id="3059" fill="#ff0000"></path>
    <path d="M314.530909 281.623273l427.869091 427.869091-32.907636 32.907636L281.623273 314.530909 314.530909 281.623273z"
          p-id="3060" fill="#ff0000"></path>
</svg>
